<?xml version="1.0" standalone="no"?>
<svg xmlns="http://www.w3.org/2000/svg" viewBox="0 0 1400 320"><path fill="#f3ad08" fill-opacity="1" d="M0,224L6.2,186.7C12.3,149,25,75,37,80C49.2,85,62,171,74,197.3C86.2,224,98,192,111,186.7C123.1,181,135,203,148,213.3C160,224,172,224,185,197.3C196.9,171,209,117,222,117.3C233.8,117,246,171,258,165.3C270.8,160,283,96,295,64C307.7,32,320,32,332,69.3C344.6,107,357,181,369,208C381.5,235,394,213,406,218.7C418.5,224,431,256,443,234.7C455.4,213,468,139,480,122.7C492.3,107,505,149,517,170.7C529.2,192,542,192,554,208C566.2,224,578,256,591,272C603.1,288,615,288,628,250.7C640,213,652,139,665,101.3C676.9,64,689,64,702,69.3C713.8,75,726,85,738,101.3C750.8,117,763,139,775,133.3C787.7,128,800,96,812,106.7C824.6,117,837,171,849,176C861.5,181,874,139,886,138.7C898.5,139,911,181,923,170.7C935.4,160,948,96,960,101.3C972.3,107,985,181,997,213.3C1009.2,245,1022,235,1034,229.3C1046.2,224,1058,224,1071,192C1083.1,160,1095,96,1108,85.3C1120,75,1132,117,1145,133.3C1156.9,149,1169,139,1182,154.7C1193.8,171,1206,213,1218,218.7C1230.8,224,1243,192,1255,192C1267.7,192,1280,224,1292,224C1304.6,224,1317,192,1329,181.3C1341.5,171,1354,181,1366,208C1378.5,235,1391,277,1403,277.3C1415.4,277,1428,235,1434,213.3L1440,192L1440,0L1433.8,0C1427.7,0,1415,0,1403,0C1390.8,0,1378,0,1366,0C1353.8,0,1342,0,1329,0C1316.9,0,1305,0,1292,0C1280,0,1268,0,1255,0C1243.1,0,1231,0,1218,0C1206.2,0,1194,0,1182,0C1169.2,0,1157,0,1145,0C1132.3,0,1120,0,1108,0C1095.4,0,1083,0,1071,0C1058.5,0,1046,0,1034,0C1021.5,0,1009,0,997,0C984.6,0,972,0,960,0C947.7,0,935,0,923,0C910.8,0,898,0,886,0C873.8,0,862,0,849,0C836.9,0,825,0,812,0C800,0,788,0,775,0C763.1,0,751,0,738,0C726.2,0,714,0,702,0C689.2,0,677,0,665,0C652.3,0,640,0,628,0C615.4,0,603,0,591,0C578.5,0,566,0,554,0C541.5,0,529,0,517,0C504.6,0,492,0,480,0C467.7,0,455,0,443,0C430.8,0,418,0,406,0C393.8,0,382,0,369,0C356.9,0,345,0,332,0C320,0,308,0,295,0C283.1,0,271,0,258,0C246.2,0,234,0,222,0C209.2,0,197,0,185,0C172.3,0,160,0,148,0C135.4,0,123,0,111,0C98.5,0,86,0,74,0C61.5,0,49,0,37,0C24.6,0,12,0,6,0L0,0Z"></path></svg>